# xmcd CD database file
#
# Track frame offsets:
#	150
#	14281
#	36523
#	55916
#	75251
#	95935
#	116194
#	137072
#	155898
#	175459
#	194535
#	212019
#
# Disc length: 3121 seconds
#
# Revision: 2
# Processed by: cddbd v1.5.2PL0 Copyright (c) Steve Scherf et al.
# Submitted via: CDex 1.51
#
DISCID=b10c2f0c
DTITLE=姜育恆女人的選擇 - 女人的選擇 韓國世紀情歌精選I
DYEAR=2000
DGENRE=Jazz
TTITLE0=風淒淒意綿綿
TTITLE1=女人的選擇
TTITLE2=淚的小花
TTITLE3=最愛的人
TTITLE4=昨日的行李
TTITLE5=也算是快樂
TTITLE6=大雪(女聲：滿書雯)
TTITLE7=異鄉人  阿里郎1999
TTITLE8=我還想愛
TTITLE9=如今
TTITLE10=歌、說、活
TTITLE11=女人的選擇
EXTD=YEAR: 2000
EXTT0=
EXTT1=
EXTT2=
EXTT3=
EXTT4=
EXTT5=
EXTT6=
EXTT7=
EXTT8=
EXTT9=
EXTT10=
EXTT11=
PLAYORDER=
